<svg xmlns="http://www.w3.org/2000/svg" xmlns:xlink="http://www.w3.org/1999/xlink" style="shape-rendering:geometricPrecision;fill-rule:evenodd;clip-rule:evenodd" height="420" width="480" xml:space="preserve"><defs><path d="M175 137c2 2 2 6 0 8s-6 2-8 0l-63-63c-2-2-2-6 0-8 3-2 6-2 9 0l62 63zm-33 67c4 0 6 3 6 6s-2 6-6 6H54c-4 0-6-3-6-6s2-6 6-6h88zM367 74c3-2 6-2 9 0 2 2 2 6 0 8l-63 63c-2 2-6 2-8 0s-2-6 0-8l62-63zM167 275c2-2 6-2 8 0s2 6 0 8l-62 63c-3 2-6 2-9 0-2-2-2-6 0-8l63-63zm-15-108c3 2 4 5 3 8s-5 4-8 3l-33-14c-3-1-4-4-3-7s5-5 8-3l33 13zm134-83c1-3 4-4 7-3s5 5 3 8l-13 33c-1 3-5 4-8 3s-4-5-3-8l14-33zm-89 214c1-3 5-4 8-3s4 5 3 8l-14 33c-1 3-4 4-7 3s-5-5-4-8l14-33zm164-144c3-2 6 0 8 3 1 3-1 6-4 7l-32 14c-3 1-7 0-8-3s0-7 3-8l33-13zm-214 88c3-1 7 0 8 3s0 7-3 8l-33 14c-3 1-6-1-8-4-1-3 0-6 3-7l33-14zm61-125c1 3 0 7-3 8s-7 0-8-3l-13-33c-2-3 0-6 3-8 3-1 6 0 8 4l13 32zm26-93c0-4 3-6 6-6s6 2 6 6v88c0 3-3 6-6 6s-6-3-6-6V24zm6 260c9 0 18-1 27-5 0-18 7-35 20-47 7-8 17-14 27-17v-5c0-41-33-74-74-74s-74 33-74 74 33 74 74 74z" id="a" style="fill:#fff"/><path d="M448 304c0-9-4-17-10-23-5-6-14-10-23-10-3 0-5 1-8 1-1 1-3 1-4 2v15c-1 3-1 5-2 8s-4 5-7 4c-3 0-5-4-4-7 0-2 1-4 1-7 0-2 1-4 1-7 0-1 0-3-1-4v-5c-2-14-9-25-19-34-10-8-23-13-37-13-16 0-30 6-40 16s-17 25-17 40c0 3 0 5 1 7 0 3 0 5 1 7 1 3-1 7-4 7-1 1-2 1-3 0h-4c-5 0-10 2-13 5s-5 8-5 13 2 9 5 13c3 3 8 5 13 5h146c9 0 18-4 23-10 6-6 10-14 10-23z" id="b" style="fill:#fff"/><path d="M340 0v2c-2 33-17 58-38 74s-49 23-76 23h-1c-20 27-56 44-96 51-43 8-91 5-129-6v-25c36 12 83 16 125 8 37-7 69-22 84-46 2-3 6-6 11-5h6c23 0 45-6 62-19 16-12 27-31 28-56V0h24zm-95 0c2 8 2 15 1 22-1 14-6 25-14 34-8 8-18 14-30 18-8 3-16 4-25 4-17 19-41 31-69 36-35 7-75 6-108 0V90c31 6 70 8 103 1 25-5 46-15 59-32 2-3 6-5 11-5 7 1 15 0 22-3 8-2 15-6 19-11 5-5 8-12 9-20 0-6 0-12-3-20h25zm-93 0c1 3 2 6 2 8 2 12 0 23-6 34s-16 20-30 28h-1C92 83 54 90 0 84V60c50 6 85 1 106-11h1c10-5 17-12 21-18 3-6 4-13 3-18s-3-9-6-13h27z" id="c" style="fill:#fff;opacity:.5"/></defs><use xlink:href="#a"/><use xlink:href="#b"/><use xlink:href="#c"/></svg>