<svg xmlns="http://www.w3.org/2000/svg" xmlns:xlink="http://www.w3.org/1999/xlink" style="shape-rendering:geometricPrecision;fill-rule:evenodd;clip-rule:evenodd" height="420" width="480" xml:space="preserve"><defs><path d="M448 304c0-9-4-17-10-23-5-6-14-10-23-10-3 0-5 1-8 1-1 1-3 1-4 2v15c-1 3-1 5-2 8s-4 5-7 4c-3 0-5-4-4-7 0-2 1-4 1-7 0-2 1-4 1-7 0-1 0-3-1-4v-5c-2-14-9-25-19-34-10-8-23-13-37-13-16 0-30 6-40 16s-17 25-17 40c0 3 0 5 1 7 0 3 0 5 1 7 1 3-1 7-4 7-1 1-2 1-3 0h-4c-5 0-10 2-13 5s-5 8-5 13 2 9 5 13c3 3 8 5 13 5h146c9 0 18-4 23-10 6-6 10-14 10-23z" id="c" style="fill:#fff"/><path d="M340 0v2c-2 33-17 58-38 74s-49 23-76 23h-1c-20 27-56 44-96 51-43 8-91 5-129-6v-25c36 12 83 16 125 8 37-7 69-22 84-46 2-3 6-6 11-5h6c23 0 45-6 62-19 16-12 27-31 28-56V0h24zm-95 0c2 8 2 15 1 22-1 14-6 25-14 34-8 8-18 14-30 18-8 3-16 4-25 4-17 19-41 31-69 36-35 7-75 6-108 0V90c31 6 70 8 103 1 25-5 46-15 59-32 2-3 6-5 11-5 7 1 15 0 22-3 8-2 15-6 19-11 5-5 8-12 9-20 0-6 0-12-3-20h25zm-93 0c1 3 2 6 2 8 2 12 0 23-6 34s-16 20-30 28h-1C92 83 54 90 0 84V60c50 6 85 1 106-11h1c10-5 17-12 21-18 3-6 4-13 3-18s-3-9-6-13h27z" id="d" style="fill:#fff;opacity:.5"/><g id="a" style="display:initial!important"><path d="m416 59-7 23m15-8-23-6" style="stroke:#fff;stroke-width:8.85827;stroke-linecap:round;stroke-linejoin:round;fill:#fff"/><path d="m90 105-12 45m29-16-45-12" style="stroke:#fff;stroke-width:5.90551;stroke-linecap:round;stroke-linejoin:round;fill:#fff"/><path d="m282 13-12 45m28-16-45-12" style="stroke:#fff;stroke-width:2.95276;stroke-linecap:round;stroke-linejoin:round;fill:#fff"/><path d="m59 58-6 23m14-9-23-6" style="stroke:#fff;stroke-width:8.85827;stroke-linecap:round;stroke-linejoin:round;fill:#fff"/><path d="m91 332-12 45m28-17-45-12" style="stroke:#fff;stroke-width:5.90551;stroke-linecap:round;stroke-linejoin:round;fill:#fff"/><path d="m419 135-12 45m29-16-45-12" style="stroke:#fff;stroke-width:2.95276;stroke-linecap:round;stroke-linejoin:round;fill:#fff"/></g><g id="b" style="display:initial!important"><path d="M254 69h-14c-78 0-141 63-141 141s63 141 141 141h13c4-1 6-2 8-3-5-2-10-4-13-8-6-5-9-13-9-21 0-5 1-9 3-12-19-25-30-59-30-97 0-51 20-94 49-117 7-2 9-21-7-24z" style="fill:#fff"/><use xlink:href="#a"/></g></defs><use xlink:href="#b"/><use xlink:href="#c"/><use xlink:href="#d"/></svg>