<svg xmlns="http://www.w3.org/2000/svg" xmlns:xlink="http://www.w3.org/1999/xlink" style="shape-rendering:geometricPrecision;fill-rule:evenodd;clip-rule:evenodd" height="420" width="480" xml:space="preserve"><defs><path d="M376 338c2 2 2 6 0 8-3 2-6 2-9 0l-37-37c1-1 1-3 1-4 0-3 0-5-1-8v-2c1-1 1-1 2-1l44 44zm-58-41-13-14c-2-2-2-6 0-8s6-2 8 0c2 5 4 11 5 17v5zM175 137c2 2 2 6 0 8s-6 2-8 0l-63-63c-2-2-2-6 0-8 3-2 6-2 9 0l62 63zm251 67c4 0 6 3 6 6s-2 6-6 6h-88c-4 0-6-3-6-6s2-6 6-6h88zm-284 0c4 0 6 3 6 6s-2 6-6 6H54c-4 0-6-3-6-6s2-6 6-6h88zM367 74c3-2 6-2 9 0 2 2 2 6 0 8l-63 63c-2 2-6 2-8 0s-2-6 0-8l62-63zM168 274c2-1 5-1 7 1s2 6 0 8l-13 13c1-7 3-15 6-22zm-18 35-12 12c-6 2-10 5-14 9s-7 9-9 14h-12c-1-2-1-5 1-6l47-47c-1 4-1 9-1 14v4zm215-53c4 1 5 4 4 7-2 3-5 5-8 4l-33-14c-3-1-4-5-3-8s5-4 8-3l32 14zm-213-89c3 2 4 5 3 8s-5 4-8 3l-33-14c-3-1-4-4-3-7s5-5 8-3l33 13zm134-83c1-3 4-4 7-3s5 5 3 8l-13 33c-1 3-5 4-8 3s-4-5-3-8l14-33zm-89 214c1-3 5-4 8-3s4 5 3 8l-14 33c-1 3-4 4-7 3s-5-5-4-8l14-33zm164-144c3-2 6 0 8 3 1 3-1 6-4 7l-32 14c-3 1-7 0-8-3s0-7 3-8l33-13zm-214 88c3-1 7 0 8 3s0 7-3 8l-33 14c-3 1-6-1-8-4-1-3 0-6 3-7l33-14zm149 89c2 3 0 7-3 8s-6 0-7-3l-5-11c2-4 2-9 2-13 0-6-1-12-3-17l3 3 13 33zm-88-214c1 3 0 7-3 8s-7 0-8-3l-13-33c-2-3 0-6 3-8 3-1 6 0 8 4l13 32zm26-93c0-4 3-6 6-6s6 2 6 6v88c0 3-3 6-6 6s-6-3-6-6V24zm0 284c0-3 3-6 6-6s6 3 6 6v35c-2 1-5 1-7 1h-5v-36zm12 48v23c0 1-1 3-2 4h-8c-1-1-2-3-2-4v-23h12zm-6-72c5 0 10 0 14-1-4-3-10-4-15-4-3 0-6 0-8 1-2 0-3 1-5 1 0 1 1 1 1 1v1c4 1 8 1 13 1zm29-5c12-6 23-14 31-25-3-4-6-7-9-9-14-12-31-19-51-19-13 0-26 3-37 10 10 8 18 20 21 33 1 0 3 0 4-1 3 0 7-1 11-1 11 0 22 4 30 12zm-77-37-7 7-5 5c9 12 21 21 34 26v-2c-2-13-9-25-19-33l-3-3zm114 1c5-10 8-21 8-33 0-41-33-74-74-74s-74 33-74 74v10c10 1 18 4 26 8 14-9 30-14 48-14 23 0 43 8 59 22 2 2 5 4 7 7zm-137-11c1 4 3 8 5 11l2-2 5-5c-3-2-8-3-12-4z" id="a" style="fill:#fff"/><path d="M340 0v2c-2 33-17 58-38 74s-49 23-76 23h-1c-20 27-56 44-96 51-43 8-91 5-129-6v-25c36 12 83 16 125 8 37-7 69-22 84-46 2-3 6-6 11-5h6c23 0 45-6 62-19 16-12 27-31 28-56V0h24zm-95 0c2 8 2 15 1 22-1 14-6 25-14 34-8 8-18 14-30 18-8 3-16 4-25 4-17 19-41 31-69 36-35 7-75 6-108 0V90c31 6 70 8 103 1 25-5 46-15 59-32 2-3 6-5 11-5 7 1 15 0 22-3 8-2 15-6 19-11 5-5 8-12 9-20 0-6 0-12-3-20h25zm-93 0c1 3 2 6 2 8 2 12 0 23-6 34s-16 20-30 28h-1C92 83 54 90 0 84V60c50 6 85 1 106-11h1c10-5 17-12 21-18 3-6 4-13 3-18s-3-9-6-13h27z" id="c" style="fill:#fff;opacity:.5"/><g id="b" style="display:initial!important"><path d="M395 337c0-13-5-24-13-33-9-8-20-13-33-13-4 0-8 0-12 1-2 1-5 2-7 3v2c1 3 1 5 1 8s-1 7-1 11c-1 4-1 7-2 11-1 3-4 5-7 4-4-1-5-4-5-7 1-3 2-6 2-10 1-3 1-6 1-9v-7c-1-2-1-4-1-6-3-19-13-35-27-47s-31-19-51-19c-13 0-26 3-37 10 10 8 18 20 21 33 1 0 3 0 4-1 3 0 7-1 11-1 12 0 23 5 31 13s13 19 13 32c0 12-5 23-13 31s-19 13-31 13H124v1c0 7 3 14 8 18 5 5 11 8 19 8h198c13 0 24-5 33-13 8-9 13-20 13-33zm-203-95-7 7c-15 14-23 34-23 56v9c1 4 1 7 2 10s-1 6-4 7h-6c-1-1-2-1-3-1-8 0-14 3-19 8-2 2-3 4-5 6h112c9 0 17-3 23-9s9-14 9-23-3-18-9-24c-6-5-14-9-23-9-3 0-6 0-8 1-2 0-3 1-5 1 0 1 1 1 1 1v6c0 2 0 5-1 8 0 3-1 6-1 9-1 3-4 5-8 4-3-1-5-4-4-7s1-5 2-7v-12c0-1-1-3-1-4v-1c-2-13-9-25-19-33l-3-3z" style="fill:#fff"/><path d="M271 312c0-9-3-18-9-24-6-5-14-9-23-9-3 0-6 0-8 1-2 0-3 1-5 1 0 1 1 1 1 1v6c0 2 0 5-1 8 0 3-1 6-1 9-1 3-4 5-8 4-3-1-5-4-4-7s1-5 2-7v-12c0-1-1-3-1-4v-1c-2-13-9-25-19-33-10-9-23-14-37-14-15 0-29 6-40 17-10 10-16 24-16 40v7c0 2 1 4 1 7 1 3-1 6-4 7h-3c-1 0-1 0-2-1h-2c-5 0-9 2-13 6-3 3-5 7-5 12s2 10 5 13c4 3 8 5 13 5h147c9 0 17-3 23-9s9-14 9-23z" style="fill:#fff"/></g></defs><use xlink:href="#a"/><use xlink:href="#b"/><use xlink:href="#c"/></svg>