<svg xmlns="http://www.w3.org/2000/svg" xmlns:xlink="http://www.w3.org/1999/xlink" style="shape-rendering:geometricPrecision;fill-rule:evenodd;clip-rule:evenodd" height="420" width="480" xml:space="preserve"><defs><path d="M175 137c2 2 2 6 0 8s-6 2-8 0l-63-63c-2-2-2-6 0-8 3-2 6-2 9 0l62 63zm95 5c-9-4-19-6-30-6-41 0-74 33-74 74 0 36 26 67 61 73 6-7 13-12 20-16 0-1 1-2 1-3-6-7-12-16-15-25-5-11-7-23-6-35s5-25 12-35c7-11 17-20 31-27zm-128 62c4 0 6 3 6 6s-2 6-6 6H54c-4 0-6-3-6-6s2-6 6-6h88zm25 71c2-2 6-2 8 0s2 6 0 8l-62 63c-3 2-6 2-9 0-2-2-2-6 0-8l63-63zm-15-108c3 2 4 5 3 8s-5 4-8 3l-33-14c-3-1-4-4-3-7s5-5 8-3l33 13zm134-83c1-3 4-4 7-3s5 5 3 8l-13 33c-1 3-5 4-8 3s-4-5-3-8l14-33zm-89 214c1-3 5-4 8-3s4 5 3 8l-14 33c-1 3-4 4-7 3s-5-5-4-8l14-33zm-50-56c3-1 7 0 8 3s0 7-3 8l-33 14c-3 1-6-1-8-4-1-3 0-6 3-7l33-14zm61-125c1 3 0 7-3 8s-7 0-8-3l-13-33c-2-3 0-6 3-8 3-1 6 0 8 4l13 32zm26-93c0-4 3-6 6-6s6 2 6 6v88c0 3-3 6-6 6s-6-3-6-6V24z" id="a" style="fill:#fff"/><path d="M292 134c66-110 208 14 113 95-11-5-16-7-30-9-2-1-6 2-6 5 1 3 4 4 6 6 20 4 63 19 64 77 1 25-21 66-57 73l-109 1c-29-3-52-25-51-54 1-48 44-66 84-48 4 2 8-6 6-9-7-8-37-13-48-9-60-56 0-136 61-114 6 2 11-7 6-10-3-2-12-4-17-5-13-2-22 1-22 1z" id="b" style="fill:#fff"/></defs><use xlink:href="#a"/><use xlink:href="#b"/></svg>