<svg xmlns="http://www.w3.org/2000/svg" xmlns:xlink="http://www.w3.org/1999/xlink" style="shape-rendering:geometricPrecision;fill-rule:evenodd;clip-rule:evenodd" height="420" width="480" xml:space="preserve"><defs><g id="a" style="display:initial!important"><path d="m416 59-7 23m15-8-23-6" style="stroke:#fff;stroke-width:8.85827;stroke-linecap:round;stroke-linejoin:round;fill:#fff"/><path d="m90 105-12 45m29-16-45-12" style="stroke:#fff;stroke-width:5.90551;stroke-linecap:round;stroke-linejoin:round;fill:#fff"/><path d="m282 13-12 45m28-16-45-12" style="stroke:#fff;stroke-width:2.95276;stroke-linecap:round;stroke-linejoin:round;fill:#fff"/><path d="m59 58-6 23m14-9-23-6" style="stroke:#fff;stroke-width:8.85827;stroke-linecap:round;stroke-linejoin:round;fill:#fff"/><path d="m91 332-12 45m28-17-45-12" style="stroke:#fff;stroke-width:5.90551;stroke-linecap:round;stroke-linejoin:round;fill:#fff"/><path d="m419 135-12 45m29-16-45-12" style="stroke:#fff;stroke-width:2.95276;stroke-linecap:round;stroke-linejoin:round;fill:#fff"/></g><g id="b" style="display:initial!important"><path d="M254 69h-14c-78 0-141 63-141 141 0 69 49 126 114 139 0-3-1-5-2-8v-4c-4-23 4-41 15-53 1-1 1-1 1-2-9-20-15-45-15-72 0-51 20-94 49-117 7-2 9-21-7-24z" style="fill:#fff"/><use xlink:href="#a"/></g><path d="M292 134c66-110 208 14 113 95-11-5-16-7-30-9-2-1-6 2-6 5 1 3 4 4 6 6 20 4 63 19 64 77 1 25-21 66-57 73l-109 1c-29-3-52-25-51-54 1-48 44-66 84-48 4 2 8-6 6-9-7-8-37-13-48-9-60-56 0-136 61-114 6 2 11-7 6-10-3-2-12-4-17-5-13-2-22 1-22 1z" id="c" style="fill:#fff"/></defs><use xlink:href="#b"/><use xlink:href="#c"/></svg>