<svg xmlns="http://www.w3.org/2000/svg" xmlns:xlink="http://www.w3.org/1999/xlink" style="shape-rendering:geometricPrecision;fill-rule:evenodd;clip-rule:evenodd" height="420" width="480" xml:space="preserve"><defs><path d="M292 134c66-110 208 14 113 95-11-5-16-7-30-9-2-1-6 2-6 5 1 3 4 4 6 6 20 4 63 19 64 77 1 25-21 66-57 73l-109 1c-29-3-52-25-51-54 1-48 44-66 84-48 4 2 8-6 6-9-7-8-37-13-48-9-60-56 0-136 61-114 6 2 11-7 6-10-3-2-12-4-17-5-13-2-22 1-22 1z" id="c" style="fill:#fff"/><path d="M340 0v2c-2 33-17 58-38 74s-49 23-76 23h-1c-20 27-56 44-96 51-43 8-91 5-129-6v-25c36 12 83 16 125 8 37-7 69-22 84-46 2-3 6-6 11-5h6c23 0 45-6 62-19 16-12 27-31 28-56V0h24zm-95 0c2 8 2 15 1 22-1 14-6 25-14 34-8 8-18 14-30 18-8 3-16 4-25 4-17 19-41 31-69 36-35 7-75 6-108 0V90c31 6 70 8 103 1 25-5 46-15 59-32 2-3 6-5 11-5 7 1 15 0 22-3 8-2 15-6 19-11 5-5 8-12 9-20 0-6 0-12-3-20h25zm-93 0c1 3 2 6 2 8 2 12 0 23-6 34s-16 20-30 28h-1C92 83 54 90 0 84V60c50 6 85 1 106-11h1c10-5 17-12 21-18 3-6 4-13 3-18s-3-9-6-13h27z" id="d" style="fill:#fff;opacity:.5"/><g id="a" style="display:initial!important"><path d="m416 59-7 23m15-8-23-6" style="stroke:#fff;stroke-width:8.85827;stroke-linecap:round;stroke-linejoin:round;fill:#fff"/><path d="m90 105-12 45m29-16-45-12" style="stroke:#fff;stroke-width:5.90551;stroke-linecap:round;stroke-linejoin:round;fill:#fff"/><path d="m282 13-12 45m28-16-45-12" style="stroke:#fff;stroke-width:2.95276;stroke-linecap:round;stroke-linejoin:round;fill:#fff"/><path d="m59 58-6 23m14-9-23-6" style="stroke:#fff;stroke-width:8.85827;stroke-linecap:round;stroke-linejoin:round;fill:#fff"/><path d="m91 332-12 45m28-17-45-12" style="stroke:#fff;stroke-width:5.90551;stroke-linecap:round;stroke-linejoin:round;fill:#fff"/><path d="m419 135-12 45m29-16-45-12" style="stroke:#fff;stroke-width:2.95276;stroke-linecap:round;stroke-linejoin:round;fill:#fff"/></g><g id="b" style="display:initial!important"><path d="M254 69h-14c-78 0-141 63-141 141 0 69 49 126 114 139 0-3-1-5-2-8v-4c-4-23 4-41 15-53 1-1 1-1 1-2-9-20-15-45-15-72 0-51 20-94 49-117 7-2 9-21-7-24z" style="fill:#fff"/><use xlink:href="#a"/></g></defs><use xlink:href="#b"/><use xlink:href="#c"/><use xlink:href="#d"/></svg>