<svg xmlns="http://www.w3.org/2000/svg" xmlns:xlink="http://www.w3.org/1999/xlink" style="shape-rendering:geometricPrecision;fill-rule:evenodd;clip-rule:evenodd" height="420" width="480" xml:space="preserve"><defs><g id="a" style="display:initial!important"><path d="m416 59-7 23m15-8-23-6" style="stroke:#fff;stroke-width:8.85827;stroke-linecap:round;stroke-linejoin:round;fill:#fff"/><path d="m90 105-12 45m29-16-45-12" style="stroke:#fff;stroke-width:5.90551;stroke-linecap:round;stroke-linejoin:round;fill:#fff"/><path d="m282 13-12 45m28-16-45-12" style="stroke:#fff;stroke-width:2.95276;stroke-linecap:round;stroke-linejoin:round;fill:#fff"/><path d="m59 58-6 23m14-9-23-6" style="stroke:#fff;stroke-width:8.85827;stroke-linecap:round;stroke-linejoin:round;fill:#fff"/><path d="m91 332-12 45m28-17-45-12" style="stroke:#fff;stroke-width:5.90551;stroke-linecap:round;stroke-linejoin:round;fill:#fff"/><path d="m419 135-12 45m29-16-45-12" style="stroke:#fff;stroke-width:2.95276;stroke-linecap:round;stroke-linejoin:round;fill:#fff"/></g><g id="b" style="display:initial!important"><path d="M254 69h-14c-78 0-141 63-141 141s63 141 141 141h13c18-3 14-21 8-25-29-22-49-66-49-116 0-51 20-94 49-117 7-2 9-21-7-24z" style="fill:#fff"/><use xlink:href="#a"/></g><g id="c" style="display:initial!important;fill:#fff"><path d="M480 242H0v-11h480v11z" opacity=".1"/><path d="M480 263H0v-11h480v11z" opacity=".2"/><path d="M480 284H0v-11h480v11z" opacity=".3"/><path d="M480 305H0v-11h480v11z" opacity=".4"/><path d="M480 326H0v-11h480v11z" opacity=".5"/><path d="M480 347H0v-11h480v11z" opacity=".6"/><path d="M480 368H0v-11h480v11z" opacity=".7"/><path d="M480 389H0v-11h480v11z" opacity=".8"/><path opacity=".9" d="M480 410H0v-11h480z"/></g></defs><use xlink:href="#b"/><use xlink:href="#c"/></svg>