<svg xmlns="http://www.w3.org/2000/svg" xmlns:xlink="http://www.w3.org/1999/xlink" style="shape-rendering:geometricPrecision;fill-rule:evenodd;clip-rule:evenodd" height="420" width="480" xml:space="preserve"><defs><use transform="translate(90 70)" xlink:href="#a" style="stroke-width:12" id="b"/><use transform="matrix(.65 0 0 .65 40 125)" xlink:href="#a" style="stroke-width:18" id="c"/><path d="M338 263c0-31-26-57-58-57-10 0-19 2-28 7-7-44-45-78-91-78-52 0-94 41-94 93 0 8 1 15 3 23-2-1-5-1-8-1-20 0-36 16-36 35 0 20 16 36 36 36h218c32 0 58-26 58-58zm-87-12c2-8 3-15 3-23 0-5-1-10-2-15" id="a" style="stroke:inherit;stroke-linecap:round;stroke-linejoin:round"/><g id="d" style="display:initial!important;fill:#fff"><path d="M480 242H0v-11h480v11z" opacity=".1"/><path d="M480 263H0v-11h480v11z" opacity=".2"/><path d="M480 284H0v-11h480v11z" opacity=".3"/><path d="M480 305H0v-11h480v11z" opacity=".4"/><path d="M480 326H0v-11h480v11z" opacity=".5"/><path d="M480 347H0v-11h480v11z" opacity=".6"/><path d="M480 368H0v-11h480v11z" opacity=".7"/><path d="M480 389H0v-11h480v11z" opacity=".8"/><path opacity=".9" d="M480 410H0v-11h480z"/></g></defs><use xlink:href="#b" style="stroke:#fff;fill:#e6e6e6"/><use xlink:href="#c" style="stroke:#fff;fill:#e6e6e6"/><use xlink:href="#d"/></svg>