<svg xmlns="http://www.w3.org/2000/svg" xmlns:xlink="http://www.w3.org/1999/xlink" style="shape-rendering:geometricPrecision;fill-rule:evenodd;clip-rule:evenodd" height="420" width="480" xml:space="preserve"><defs><path d="M376 338c2 2 2 6 0 8-3 2-6 2-9 0l-40-40c3-3 5-6 7-10l42 42zm-57-41 13 13zM177 142zm-26-13-47-47c-2-2-2-6 0-8 3-2 6-2 9 0l54 55h-16zm275 75c4 0 6 3 6 6s-2 6-6 6h-88c-4 0-6-3-6-6s2-6 6-6h88zM367 74c3-2 6-2 9 0 2 2 2 6 0 8l-63 63c-2 2-6 2-8 0s-2-6 0-8l62-63zm-2 182c4 1 5 4 4 7-2 3-5 5-8 4l-17-8c-1-4-2-9-3-13l24 10zm-34-2ZM286 84c1-3 4-4 7-3s5 5 3 8l-13 33c-1 3-5 4-8 3s-4-5-3-8l14-33zm75 70c3-2 6 0 8 3 1 3-1 6-4 7l-32 14c-3 1-7 0-8-3s0-7 3-8l33-13zm-153-37c1 3 0 7-3 8s-7 0-8-3l-13-33c-2-3 0-6 3-8 3-1 6 0 8 4l13 32zm26-93c0-4 3-6 6-6s6 2 6 6v88c0 3-3 6-6 6s-6-3-6-6V24zm35 254zm45-68c0-41-33-74-74-74-11 0-21 2-30 6 5 3 10 7 15 10 15 14 27 32 32 52 2-1 5-1 7-2 6-1 11-2 16-2 13 0 24 4 34 10z" id="a" style="fill:#fff"/><g id="b" style="display:initial!important"><path d="M306 218c-8-4-17-6-26-6-4 0-9 0-13 1-3 1-5 2-8 3v4c0 3 1 5 1 8 0 4-1 8-1 12l-3 12c0 3-4 5-7 4-3 0-5-4-4-7s2-7 2-10c0-4 1-8 1-11s0-5-1-7v-7c-4-21-15-40-30-53s-35-20-56-20c-25 0-46 9-62 25s-26 38-26 62c0 3 1 7 1 11 0 3 1 7 2 10s-1 7-4 7c-1 1-2 1-3 0h-7c-8 0-16 3-21 8-6 6-9 13-9 21 0 9 3 16 9 21 5 6 13 9 21 9h177c1-7 4-13 9-17 5-5 11-8 19-9v-9c0-19 7-36 20-48 5-6 11-10 19-14z" style="fill:#fff"/><path d="M448 304c0-9-4-17-10-23-5-6-14-10-23-10-3 0-5 1-8 1-1 1-3 1-4 2v15c-1 3-1 5-2 8s-4 5-7 4c-3 0-5-4-4-7 0-2 1-4 1-7 0-2 1-4 1-7 0-1 0-3-1-4v-5c-2-14-9-25-19-34-10-8-23-13-37-13-16 0-30 6-40 16s-17 25-17 40c0 3 0 5 1 7 0 3 0 5 1 7 1 3-1 7-4 7-1 1-2 1-3 0h-4c-5 0-10 2-13 5s-5 8-5 13 2 9 5 13c3 3 8 5 13 5h146c9 0 18-4 23-10 6-6 10-14 10-23z" style="fill:#fff"/></g></defs><use xlink:href="#a"/><use xlink:href="#b"/></svg>