<svg xmlns="http://www.w3.org/2000/svg" xmlns:xlink="http://www.w3.org/1999/xlink" style="shape-rendering:geometricPrecision;fill-rule:evenodd;clip-rule:evenodd" height="420" width="480" xml:space="preserve"><defs><path d="M338 263c0-31-26-57-58-57-10 0-19 2-28 7-7-44-45-78-91-78-52 0-94 41-94 93 0 8 1 15 3 23-2-1-5-1-8-1-20 0-36 16-36 35 0 20 16 36 36 36h218c32 0 58-26 58-58zm-87-12c2-8 3-15 3-23 0-5-1-10-2-15" id="a" style="stroke:inherit;stroke-linecap:round;stroke-linejoin:round"/><use transform="matrix(.65 0 0 .65 230 135)" xlink:href="#a" style="stroke-width:18" id="b"/></defs><use xlink:href="#a" style="stroke:#023557;stroke-width:12;fill:#b3b3b3"/><use xlink:href="#b" style="stroke:#023557;fill:#ccc"/></svg>