<svg xmlns="http://www.w3.org/2000/svg" xmlns:xlink="http://www.w3.org/1999/xlink" style="shape-rendering:geometricPrecision;fill-rule:evenodd;clip-rule:evenodd" height="420" width="480" xml:space="preserve"><defs><path style="stroke-width:12;stroke-linecap:round;stroke:#fff" d="m123 400 7-56m36 56 6-56m36 56 7-56" id="b"/><path d="M376 338c2 2 2 6 0 8-3 2-6 2-9 0l-40-40c3-3 5-6 7-10l42 42zm-57-41 13 13zM177 142zm-26-13-47-47c-2-2-2-6 0-8 3-2 6-2 9 0l54 55h-16zm275 75c4 0 6 3 6 6s-2 6-6 6h-88c-4 0-6-3-6-6s2-6 6-6h88zM367 74c3-2 6-2 9 0 2 2 2 6 0 8l-63 63c-2 2-6 2-8 0s-2-6 0-8l62-63zm-2 182c4 1 5 4 4 7-2 3-5 5-8 4l-17-8c-1-4-2-9-3-13l24 10zm-34-2ZM286 84c1-3 4-4 7-3s5 5 3 8l-13 33c-1 3-5 4-8 3s-4-5-3-8l14-33zm75 70c3-2 6 0 8 3 1 3-1 6-4 7l-32 14c-3 1-7 0-8-3s0-7 3-8l33-13zm-153-37c1 3 0 7-3 8s-7 0-8-3l-13-33c-2-3 0-6 3-8 3-1 6 0 8 4l13 32zm26-93c0-4 3-6 6-6s6 2 6 6v88c0 3-3 6-6 6s-6-3-6-6V24zm35 254zm45-68c0-41-33-74-74-74-11 0-21 2-30 6 5 3 10 7 15 10 15 14 27 32 32 52 2-1 5-1 7-2 6-1 11-2 16-2 13 0 24 4 34 10z" id="a" style="fill:#fff"/><g id="c" style="display:initial!important"><path d="M332 263c0-14-6-27-15-36-10-9-23-15-37-15-4 0-9 0-13 1-3 1-5 2-8 3v4c0 3 1 5 1 8 0 4-1 8-1 12l-3 12c0 3-4 5-7 4-3 0-5-4-4-7s2-7 2-10c0-4 1-8 1-11s0-5-1-7v-7c-4-21-15-40-30-53s-35-20-56-20c-25 0-46 9-62 25s-26 38-26 62c0 3 1 7 1 11 0 3 1 7 2 10s-1 7-4 7c-1 1-2 1-3 0h-7c-8 0-16 3-21 8-6 6-9 13-9 21 0 9 3 16 9 21 5 6 13 9 21 9h61l5-12-34-1 48-130 79 1-40 83h49l-52 59h102c14 0 27-6 37-15 9-9 15-22 15-37z" style="fill:#fff"/><path style="fill:#fff" d="m95 398 53-105h-39l42-109h52l-42 84h43z"/></g></defs><use xlink:href="#a"/><use xlink:href="#cloud_large"/><use transform="translate(60)" xlink:href="#b"/><use xlink:href="#c"/></svg>