<svg xmlns="http://www.w3.org/2000/svg" xmlns:xlink="http://www.w3.org/1999/xlink" style="shape-rendering:geometricPrecision;fill-rule:evenodd;clip-rule:evenodd" height="420" width="480" xml:space="preserve"><defs><g id="a" style="display:initial!important"><path d="m416 59-7 23m15-8-23-6" style="stroke:#fff;stroke-width:8.85827;stroke-linecap:round;stroke-linejoin:round;fill:#fff"/><path d="m90 105-12 45m29-16-45-12" style="stroke:#fff;stroke-width:5.90551;stroke-linecap:round;stroke-linejoin:round;fill:#fff"/><path d="m282 13-12 45m28-16-45-12" style="stroke:#fff;stroke-width:2.95276;stroke-linecap:round;stroke-linejoin:round;fill:#fff"/><path d="m59 58-6 23m14-9-23-6" style="stroke:#fff;stroke-width:8.85827;stroke-linecap:round;stroke-linejoin:round;fill:#fff"/><path d="m91 332-12 45m28-17-45-12" style="stroke:#fff;stroke-width:5.90551;stroke-linecap:round;stroke-linejoin:round;fill:#fff"/><path d="m419 135-12 45m29-16-45-12" style="stroke:#fff;stroke-width:2.95276;stroke-linecap:round;stroke-linejoin:round;fill:#fff"/></g><g id="b" style="display:initial!important"><path d="M254 69h-14c-52 0-97 28-122 69 13-6 27-9 43-9 23 0 44 8 61 21 9-24 22-44 39-57 7-2 9-21-7-24zm-102 72h-2 2z" style="fill:#fff"/><use xlink:href="#a"/></g><g id="d" style="display:initial!important"><path d="M332 263c0-14-6-27-15-36-10-9-23-15-37-15-4 0-9 0-13 1-3 1-5 2-8 3v4c0 3 1 5 1 8 0 4-1 8-1 12l-3 12c0 3-4 5-7 4-3 0-5-4-4-7s2-7 2-10c0-4 1-8 1-11s0-5-1-7v-7c-4-21-15-40-30-53s-35-20-56-20c-25 0-46 9-62 25s-26 38-26 62c0 3 1 7 1 11 0 3 1 7 2 10s-1 7-4 7c-1 1-2 1-3 0h-7c-8 0-16 3-21 8-6 6-9 13-9 21 0 9 3 16 9 21 5 6 13 9 21 9h61l5-12-34-1 48-130 79 1-40 83h49l-52 59h102c14 0 27-6 37-15 9-9 15-22 15-37z" style="fill:#fff"/><path style="fill:#fff" d="m95 398 53-105h-39l42-109h52l-42 84h43z"/></g><path style="stroke-width:12;stroke-linecap:round;stroke:#fff" d="m123 400 7-56m36 56 6-56m36 56 7-56" id="c"/></defs><use xlink:href="#b"/><use xlink:href="#cloud_large"/><use transform="translate(60)" xlink:href="#c"/><use xlink:href="#d"/></svg>