<svg xmlns="http://www.w3.org/2000/svg" xmlns:xlink="http://www.w3.org/1999/xlink" style="shape-rendering:geometricPrecision;fill-rule:evenodd;clip-rule:evenodd" height="420" width="480" xml:space="preserve"><defs><path d="m66 345-9 48m-14-40 37 32m-42-8 46-16m133-16-9 48m-14-40 37 32m-42-8 46-16m-93 5-10 48m-14-40 37 32m-41-8 46-16" style="display:initial!important;stroke:#fff;stroke-width:12;stroke-linecap:round" id="b"/><path class="fil1 str0" d="m311 366-9 48m-14-40 37 32m-42-8 46-16m57-16-9 48m-14-40 37 32m-41-8 46-16" style="display:initial!important;stroke:#fff;stroke-width:12;stroke-linecap:round" id="c"/><g id="a" style="display:initial!important"><path d="M270 259h-66c-11 0-20-5-27-11-7-7-11-17-11-27 0-11 4-21 11-27 7-7 16-12 27-12v-2c-1-4-1-8-1-12 0-7 1-15 3-22-14-7-29-11-45-11-52 0-94 41-94 93 0 8 1 15 3 23-2-1-5-1-8-1-20 0-36 16-36 35 0 20 16 36 36 36h177v-2c0-8 3-16 9-21 5-5 11-8 19-9v-9c0-7 1-14 3-21zm42-43c-9-7-20-10-32-10-10 0-19 2-28 7-3-24-17-45-36-60-1 5-1 10-1 15 0 4 0 7 1 10 0 3 1 7 1 10 1 3-1 6-4 7h-3c-1 0-2-1-3-1h-3c-7 0-14 3-19 8-4 5-7 11-7 19 0 7 3 13 7 18 5 5 12 8 19 8h71c3-6 7-11 12-15 7-7 16-13 25-16zm-60 31c1-6 2-13 2-19 0-5-1-10-2-15v34z" style="fill:#fff"/><path d="M449 201c0-13-6-25-14-33s-20-14-33-14c-4 0-8 1-11 2-3 0-5 1-8 2 1 1 1 2 1 3v7c0 4 0 8-1 12 0 3-1 7-2 11-1 3-4 5-7 4s-5-4-4-7 1-7 2-10v-16c0-2 0-4-1-6-3-19-13-36-26-48-14-11-32-18-51-18-22 0-42 9-56 23s-23 34-23 55c0 4 0 7 1 10 0 3 1 7 1 10 1 3-1 6-4 7h-3c-1 0-2-1-3-1h-3c-7 0-14 3-19 8-4 5-7 11-7 19 0 7 3 13 7 18 5 5 12 8 19 8h71c3-6 7-11 12-15 12-13 29-20 48-20 17 0 32 6 44 16 6 5 12 12 16 19h7c13 0 25-5 33-14 8-8 14-20 14-32z" style="fill:#fff"/><path d="M448 304c0-9-4-17-10-23-5-6-14-10-23-10-3 0-5 1-8 1-1 1-3 1-4 2v15c-1 3-1 5-2 8s-4 5-7 4c-3 0-5-4-4-7 0-2 1-4 1-7 0-2 1-4 1-7 0-1 0-3-1-4v-5c-2-14-9-25-19-34-10-8-23-13-37-13-16 0-30 6-40 16s-17 25-17 40c0 3 0 5 1 7 0 3 0 5 1 7 1 3-1 7-4 7-1 1-2 1-3 0h-4c-5 0-10 2-13 5s-5 8-5 13 2 9 5 13c3 3 8 5 13 5h146c9 0 18-4 23-10 6-6 10-14 10-23z" style="fill:#fff"/></g></defs><use xlink:href="#a"/><use xlink:href="#b"/><use xlink:href="#c"/></svg>