<svg xmlns="http://www.w3.org/2000/svg" xmlns:xlink="http://www.w3.org/1999/xlink" style="shape-rendering:geometricPrecision;fill-rule:evenodd;clip-rule:evenodd" height="420" width="480" xml:space="preserve"><defs><path style="stroke-width:12;stroke-linecap:round;stroke:#fff" d="m123 400 7-56m36 56 6-56m36 56 7-56" id="b"/><path style="stroke-width:12;stroke-linecap:round;stroke:#fff" d="m251 400 4-34m38 34 4-34" id="c"/><g id="a" style="display:initial!important"><path d="M258 259h-54c-11 0-20-5-27-11-7-7-11-17-11-27 0-11 4-21 11-27 7-7 16-12 27-12v-2c-1-4-1-8-1-12 0-7 1-15 3-22-14-7-29-11-45-11-52 0-94 41-94 93 0 8 1 15 3 23-2-1-5-1-8-1-20 0-36 16-36 35 0 20 16 36 36 36h177v-2c0-7 2-14 7-19h-3l15-41zm20-53c-9 0-18 3-26 7-3-24-17-45-36-60-1 5-1 10-1 15 0 4 0 7 1 10 0 3 1 7 1 10 1 3-1 6-4 7h-3c-1 0-2-1-3-1h-3c-7 0-14 3-19 8-4 5-7 11-7 19 0 7 3 13 7 18 5 5 12 8 19 8h59l15-41zm-26 41c1-6 2-13 2-19 0-5-1-10-2-15v34z" style="fill:#fff"/><path d="M449 201c0-13-6-25-14-33s-20-14-33-14c-4 0-8 1-11 2-3 0-5 1-8 2 1 1 1 2 1 3v7c0 4 0 8-1 12 0 3-1 7-2 11-1 3-4 5-7 4s-5-4-4-7 1-7 2-10v-16c0-2 0-4-1-6-3-19-13-36-26-48-14-11-32-18-51-18-22 0-42 9-56 23s-23 34-23 55c0 4 0 7 1 10 0 3 1 7 1 10 1 3-1 6-4 7h-3c-1 0-2-1-3-1h-3c-7 0-14 3-19 8-4 5-7 11-7 19 0 7 3 13 7 18 5 5 12 8 19 8h59l30-80h78l-22 46c12 3 22 8 30 15 6 5 12 12 16 19h7c13 0 25-5 33-14 8-8 14-20 14-32z" style="fill:#fff"/><path d="M448 304c0-9-4-17-10-23-5-6-14-10-23-10-3 0-5 1-8 1-1 1-3 1-4 2v15c-1 3-1 5-2 8s-4 5-7 4c-3 0-5-4-4-7 0-2 1-4 1-7 0-2 1-4 1-7 0-1 0-3-1-4v-5c-2-14-9-25-19-34-8-6-18-11-28-13l-14 29 50 1-75 83h110c9 0 18-4 23-10 6-6 10-14 10-23zm-170-3h-2c-1 1-2 1-3 0h-4c-5 0-10 2-13 5s-5 8-5 13 2 9 5 13c2 2 4 3 7 4l15-35z" style="fill:#fff"/><path transform="translate(150 -5)" style="fill:#fff" d="m95 398 53-105h-39l42-109h52l-42 84h43z"/></g></defs><use xlink:href="#a"/><use xlink:href="#b"/><use transform="translate(50)" xlink:href="#c"/></svg>