<svg xmlns="http://www.w3.org/2000/svg" xmlns:xlink="http://www.w3.org/1999/xlink" style="shape-rendering:geometricPrecision;fill-rule:evenodd;clip-rule:evenodd" height="420" width="480" xml:space="preserve"><defs><g id="a" style="display:initial!important;fill:#ffe19c"><path d="M96 253C342 281 528-20 354 55 587-56 344 316 96 253zm-40 86c295 17 445 85 360-11 32 52-96-3-360 11z"/><path d="M11 285c177 86 406-57 405-103-27 42-258 151-405 103zm54-94c62-17 79-32 148-17-37-34-97-21-148 17z"/><circle r="6" cy="288" cx="326"/><circle r="11" cy="310" cx="378"/><circle r="15" cy="265" cx="417"/><circle r="11" cy="153" cx="436"/><circle r="7" cy="294" cx="446"/></g></defs><use xlink:href="#a"/></svg>